<svg width="67" height="56" viewBox="0 0 67 56" fill="none" xmlns="http://www.w3.org/2000/svg">
<path d="M10.9453 40.5391C9.46094 40.5391 8.125 40.3594 6.9375 40C5.75 39.625 4.73438 39.0703 3.89062 38.3359C3.0625 37.5859 2.42188 36.6484 1.96875 35.5234C1.51562 34.3828 1.28906 33.0469 1.28906 31.5156C1.28906 30.1719 1.42969 28.8516 1.71094 27.5547C2.00781 26.2422 2.42969 25 2.97656 23.8281C3.53906 22.6406 4.21875 21.5547 5.01562 20.5703C5.82812 19.5703 6.75781 18.7109 7.80469 17.9922C8.86719 17.2578 10.0312 16.6875 11.2969 16.2812C12.5781 15.875 13.9609 15.6719 15.4453 15.6719C16.9141 15.6719 18.2422 15.8594 19.4297 16.2344C20.6328 16.5938 21.6484 17.1484 22.4766 17.8984C23.3203 18.6328 23.9688 19.5703 24.4219 20.7109C24.875 21.8359 25.1016 23.1641 25.1016 24.6953C25.1016 26.0391 24.9531 27.3672 24.6562 28.6797C24.375 29.9766 23.9609 31.2109 23.4141 32.3828C22.8672 33.5547 22.1875 34.6406 21.375 35.6406C20.5625 36.6406 19.6328 37.5078 18.5859 38.2422C17.5391 38.9609 16.375 39.5234 15.0938 39.9297C13.8125 40.3359 12.4297 40.5391 10.9453 40.5391ZM19.1016 25.2578C19.1016 23.7109 18.7188 22.5547 17.9531 21.7891C17.2031 21.0078 16.1172 20.6172 14.6953 20.6172C13.8516 20.6172 13.0859 20.7812 12.3984 21.1094C11.7109 21.4219 11.0859 21.8438 10.5234 22.375C9.97656 22.9062 9.5 23.5234 9.09375 24.2266C8.6875 24.9297 8.35156 25.6641 8.08594 26.4297C7.82031 27.1953 7.61719 27.9688 7.47656 28.75C7.35156 29.5156 7.28906 30.2422 7.28906 30.9297C7.28906 32.4766 7.67188 33.6406 8.4375 34.4219C9.20312 35.2031 10.2969 35.5938 11.7188 35.5938C12.5625 35.5938 13.3281 35.4375 14.0156 35.125C14.7031 34.7969 15.3203 34.3672 15.8672 33.8359C16.4141 33.2891 16.8906 32.6719 17.2969 31.9844C17.7031 31.2812 18.0391 30.5469 18.3047 29.7812C18.5703 29.0156 18.7656 28.2422 18.8906 27.4609C19.0312 26.6797 19.1016 25.9453 19.1016 25.2578ZM51.2109 23.9219C51.2109 26.3281 50.8906 28.5391 50.25 30.5547C49.6094 32.5703 48.6797 34.3125 47.4609 35.7812C46.2422 37.2344 44.75 38.375 42.9844 39.2031C41.2188 40.0156 39.2109 40.4219 36.9609 40.4219C35.9453 40.4219 35.0078 40.3828 34.1484 40.3047C33.2891 40.2422 32.4688 40.1484 31.6875 40.0234C30.9219 39.8984 30.1875 39.75 29.4844 39.5781C28.7969 39.4062 28.1172 39.2109 27.4453 38.9922L33.8672 6.88281H39.5859L37.9688 15.0391L36.2812 19.9844C36.7031 19.3125 37.2031 18.7109 37.7812 18.1797C38.3594 17.6484 38.9922 17.1953 39.6797 16.8203C40.3672 16.4453 41.0859 16.1641 41.8359 15.9766C42.6016 15.7734 43.375 15.6719 44.1562 15.6719C46.4688 15.6719 48.2188 16.3906 49.4062 17.8281C50.6094 19.2656 51.2109 21.2969 51.2109 23.9219ZM45.2578 24.2969C45.2578 23.0469 45.0391 22.0938 44.6016 21.4375C44.1797 20.7812 43.5312 20.4531 42.6562 20.4531C42.1719 20.4531 41.6641 20.5859 41.1328 20.8516C40.6172 21.1172 40.0938 21.4844 39.5625 21.9531C39.0469 22.4062 38.5391 22.9453 38.0391 23.5703C37.5547 24.1797 37.1016 24.8359 36.6797 25.5391C36.2734 26.2266 35.9219 26.9375 35.625 27.6719C35.3281 28.4062 35.1172 29.125 34.9922 29.8281L33.8672 35.4297C34.3672 35.6016 34.8828 35.7344 35.4141 35.8281C35.9453 35.9219 36.5078 35.9688 37.1016 35.9688C38.2109 35.9688 39.1797 35.7734 40.0078 35.3828C40.8516 34.9766 41.5703 34.4531 42.1641 33.8125C42.7734 33.1562 43.2734 32.4141 43.6641 31.5859C44.0703 30.7578 44.3906 29.9141 44.625 29.0547C44.8594 28.1953 45.0234 27.3516 45.1172 26.5234C45.2109 25.6953 45.2578 24.9531 45.2578 24.2969Z" fill="#CD664D"/>
<rect x="59" y="32" width="8" height="8" fill="#CD664D"/>
</svg>
